<?xml version="1.0" encoding="utf-8"?>
<!-- Generator: Adobe Illustrator 19.2.1, SVG Export Plug-In . SVG Version: 6.00 Build 0)  -->
<svg version="1.1" id="Layer_1" xmlns="http://www.w3.org/2000/svg" xmlns:xlink="http://www.w3.org/1999/xlink" x="0px" y="0px"
	 width="31px" height="31px" viewBox="0 0 31 31" style="enable-background:new 0 0 31 31;" xml:space="preserve">
<g>
	<g>
		<path d="M1.9,15.3c-0.1-0.5-0.6-0.9-1.1-0.9C0.3,14.5-0.1,15,0,15.6C0.3,18,4.9,27.4,7.6,30c0.2,0.2,0.4,0.3,0.7,0.3
			c0.3,0,0.5-0.1,0.7-0.3c0.4-0.4,0.4-1,0-1.4C6.6,26.4,2.2,17.3,1.9,15.3z M21.8,5.4c-1.8-2.7-4.4-3.9-7.5-3.6
			c-4.3,0.5-6.3,2.5-7.2,4.1c-1.4,2.5-1.4,5.8,0.1,9.3l0.1,0.3c1.9,4.6,4.2,9.5,7.2,9.5c1.8,0,3.4-1.1,4.5-3.1
			c2.1-3.9,2-10.4-0.2-13.6c-1.1-1.6-2.6-2.4-4.4-2.2c-1.8,0.2-3.3,1.1-4.1,2.5c-0.8,1.4-0.9,3.3-0.1,5.2c0.5,1.3,1.9,3.7,3.7,3.8
			c1.3,0,2.4-0.8,2.9-2.2c0.6-1.8,0.1-4-1.3-5.2c-0.6-0.5-1.7-0.5-2.4,0.1c-0.3,0.2-1.1,1-0.4,2.4c0.2,0.5,0.8,0.7,1.3,0.5
			c0.5-0.2,0.7-0.8,0.5-1.2c0.6,0.7,0.8,1.9,0.5,2.8c-0.3,0.8-0.9,0.8-1,0.8c-0.4,0-1.4-1-1.9-2.5c-0.6-1.4-0.6-2.6-0.1-3.5
			c0.5-0.8,1.4-1.4,2.6-1.5c1-0.1,1.9,0.3,2.5,1.3c1.8,2.6,1.8,8.4,0.1,11.6c-0.7,1.4-1.7,2.1-2.7,2.1c-1.3,0-3.2-2.8-5.5-8.3
			l-0.1-0.3c-1.3-3-1.3-5.6-0.2-7.6c1-1.7,2.9-2.8,5.7-3.1c2.4-0.3,4.3,0.6,5.6,2.7c2.7,4.1,2.8,12.1,0.1,17.1
			c-1,1.8-2.6,3.9-5.3,3.9c0,0,0,0-0.1,0c-2.1,0-4.4-2.4-6.8-7.1l-0.5-1.1c-1.9-3.6-3.8-7.2-3.3-11.2C4.5,6,5.7,3.7,7.6,1.9
			c0.4-0.4,0.4-1,0-1.4c-0.4-0.4-1-0.4-1.4,0c-2.2,2.1-3.7,4.8-4,7.4c-0.5,4.5,1.5,8.5,3.5,12.3l0.5,1.1c2.9,5.5,5.7,8.1,8.5,8.2
			c0,0,0.1,0,0.1,0c2.8,0,5.3-1.8,7-4.9C25.1,18.9,25,10.1,21.8,5.4z M22.4,0.3c-0.4-0.4-1-0.4-1.4,0c-0.4,0.4-0.4,1,0,1.4
			c3.6,3.4,5.1,8,4.9,14.2c-0.3,6.1-2.8,11-4.9,13.5c-0.4,0.4-0.3,1,0.1,1.4c0.2,0.2,0.4,0.2,0.6,0.2c0.3,0,0.5-0.1,0.7-0.3
			c3.1-3.6,5.1-9.1,5.4-14.7C28.2,9.2,26.4,4.1,22.4,0.3z M0.6,5.7c0.1,0,0.2,0.1,0.3,0.1c0.4,0,0.8-0.2,0.9-0.6
			C2,4.7,2.2,4.4,2.4,4c0.2-0.5,0-1.1-0.4-1.3c-0.5-0.2-1.1,0-1.3,0.4C0.4,3.5,0.2,3.9,0.1,4.4C-0.1,4.9,0.1,5.5,0.6,5.7z M28.4,7.2
			C28.5,7.7,28.9,8,29.3,8c0.1,0,0.2,0,0.3,0c0.5-0.1,0.8-0.7,0.7-1.2c-0.7-2.5-1.5-4.4-2.7-6.1c-0.3-0.4-0.9-0.5-1.4-0.2
			c-0.4,0.3-0.5,0.9-0.2,1.4C27,3.3,27.8,5,28.4,7.2z M30.2,19.4c-0.5-0.1-1,0.3-1.1,0.8c-0.5,2.9-1.9,6.1-3.3,9.2
			c-0.2,0.5,0,1.1,0.5,1.3c0.1,0.1,0.3,0.1,0.4,0.1c0.4,0,0.7-0.2,0.9-0.6c1.4-3.2,2.9-6.6,3.4-9.7C31.1,20,30.7,19.5,30.2,19.4z
			 M2.2,24.9c-0.2-0.5-0.8-0.7-1.3-0.5c-0.5,0.2-0.7,0.8-0.5,1.3c0.7,1.5,1.4,2.8,2.2,4.1c0.2,0.3,0.5,0.5,0.8,0.5
			c0.2,0,0.3,0,0.5-0.1c0.5-0.3,0.6-0.9,0.4-1.4C3.6,27.6,2.8,26.3,2.2,24.9z M14.4,21.1c1.4-0.1,2.3-0.7,2.9-1.9
			c0.3-0.5,0.1-1.1-0.4-1.3c-0.5-0.3-1.1-0.1-1.3,0.4c-0.3,0.6-0.6,0.8-1.3,0.8c-0.5,0-1,0.5-0.9,1C13.4,20.7,13.9,21.1,14.4,21.1
			C14.4,21.1,14.4,21.1,14.4,21.1z"/>
	</g>
</g>
</svg>
